# xmcd CD database file
#
# Track frame offsets:
#	150
#	65850
#	90530
#	102952
#	139692
#	179667
#
# Disc length: 2997 seconds
#
# Revision: 1
# Processed by: cddbd v1.5.1PL2 Copyright (c) Steve Scherf et al.
# Submitted via: CDex 1.51
#
DISCID=540bb306
DTITLE=Codice Nuovo - Breath massage
DYEAR=1900
DGENRE=New Age
TTITLE0=Suono e respiro
TTITLE1=Muladhara
TTITLE2=Massaggio
TTITLE3=Incontro
TTITLE4=Risveglio
TTITLE5=Connessione
EXTD=
EXTT0=
EXTT1=
EXTT2=
EXTT3=
EXTT4=
EXTT5=
PLAYORDER=
